<svg xmlns="http://www.w3.org/2000/svg" viewBox="0 0 136.54 82"><defs><style>.cls-1{fill:#b3e5fc;}.cls-2{fill:#1e88e5;}.cls-3{fill:#ebf6fd;}</style></defs><g id="图层_2" data-name="图层 2"><g id="图层_1-2" data-name="图层 1"><rect class="cls-1" width="136.54" height="82" rx="6.68"/><rect class="cls-2" x="11.54" y="9.59" width="53.97" height="62.22" rx="6.68"/><rect class="cls-3" x="23.14" y="22.59" width="6.05" height="36.22" rx="3.03"/><rect class="cls-3" x="33.79" y="27.99" width="6.05" height="25.41" rx="3.03"/><rect class="cls-3" x="44.1" y="31.99" width="6.05" height="17.41" rx="3.03"/><rect class="cls-3" x="53.76" y="35.99" width="6.05" height="9.41" rx="3.03"/><rect class="cls-2" x="72.54" y="9.59" width="53.97" height="62.22" rx="6.68"/><rect class="cls-3" x="108.85" y="22.59" width="6.05" height="36.22" rx="3.03" transform="translate(223.76 81.39) rotate(180)"/><rect class="cls-3" x="98.2" y="27.99" width="6.05" height="25.41" rx="3.03" transform="translate(202.45 81.39) rotate(180)"/><rect class="cls-3" x="87.89" y="31.99" width="6.05" height="17.41" rx="3.03" transform="translate(181.83 81.39) rotate(-180)"/><rect class="cls-3" x="78.23" y="35.99" width="6.05" height="9.41" rx="3.03" transform="translate(162.52 81.39) rotate(180)"/></g></g></svg>